PathFileType	4	(X/Y/Z)	Patient4_TMGait_0pt7_02_right_27.trc.trc
DataRate	CameraRate	NumFrames	NumMarkers	Units	OrigDataRate	OrigDataStartFrame	OrigNumFrames
86.419753086420	86.419753086420	4	33	mm	86.419753086420	36	       141
Frame#	Time	Sacral			L.Shoulder			Chest			R.Shoulder			Neck			R.ASIS			L.ASIS			R.Thigh.Superior			R.Thigh.Lateral			R.Thigh.Inferior			R.Patella			L.Thigh.Superior			L.Thigh.Lateral			L.Thigh.Inferior			L.Patella			L.Shank.Superior			L.Shank.Lateral			L.Shank.Inferior			R.Shank.Superior			R.Shank.Lateral			R.Shank.Inferior			R.Heel			R.Midfoot.Superior			R.Midfoot.Lateral			R.Toe			L.Heel			L.Midfoot.Lateral			L.Midfoot.Superior			L.Toe			L.Elbow			L.Wrist			R.Elbow			R.Wrist			
		X1	Y1	Z1	X2	Y2	Z2	X3	Y3	Z3	X4	Y4	Z4	X5	Y5	Z5	X6	Y6	Z6	X7	Y7	Z7	X8	Y8	Z8	X9	Y9	Z9	X10	Y10	Z10	X11	Y11	Z11	X12	Y12	Z12	X13	Y13	Z13	X14	Y14	Z14	X15	Y15	Z15	X16	Y16	Z16	X17	Y17	Z17	X18	Y18	Z18	X19	Y19	Z19	X20	Y20	Z20	X21	Y21	Z21	X22	Y22	Z22	X23	Y23	Z23	X24	Y24	Z24	X25	Y25	Z25	X26	Y26	Z26	X27	Y27	Z27	X28	Y28	Z28	X29	Y29	Z29	X30	Y30	Z30	X31	Y31	Z31	X32	Y32	Z32	X33	Y33	Z33	

36	30.605000000000	852.093595102054	1001.291628731668	503.532036887037	1057.083189610759	1422.922932776821	320.804935093977	1156.661761901795	1342.957481441521	479.993328498603	1080.962846109101	1423.449066153116	653.628363263388	1064.330219588139	1481.156355013744	474.699110946677	1078.833727145211	929.290034867667	621.376326230076	1061.846587547127	947.182089703691	344.762775384056	1145.232731539848	749.288484853112	596.357313576185	1078.695372354996	632.179431902342	653.535870656113	1166.555820648050	591.552796978432	576.700318450517	1181.166753377310	502.342207938092	584.314192076239	1108.935093579801	737.386910018302	370.428404559263	1028.584035239250	621.495131969420	300.093652638091	1117.105140972433	537.720125364115	357.471505281472	1110.160685488255	450.598981210727	353.757519975240	1039.314343534684	394.019942310608	346.796742118350	898.387309524499	356.581318132676	294.661905188806	878.028069276463	230.823804789434	352.211372812005	1158.623698997960	411.080918876934	590.255201100938	1093.915061881727	301.880048289368	650.598905966618	1145.704229242451	210.777641324281	588.342266222412	1022.982343171163	43.024723043881	553.009447680911	1194.351039604639	99.216114417106	592.675606703026	1105.320801701714	36.752357839251	628.618325586490	1313.596481372619	46.373411176501	620.344074047398	682.826605111178	164.684377955249	384.383757481675	744.367640428410	127.517163088361	303.146951339301	847.962934343614	138.210139133443	327.983566450024	930.719368512550	37.817747771689	295.198695921073	1101.581352463079	1096.523801719183	170.634037340570	1347.159086715534	1094.895619418860	236.582198294971	945.263712811558	1103.752941422202	766.100789835864	902.484748469520	845.198151800349	757.110605645099	
37	30.616571428571	850.659261148214	1003.151159148671	507.063990160724	1054.917319410254	1424.399883511087	323.132930645557	1156.025163451607	1344.017166477738	481.188324022894	1082.309584970999	1424.371767947092	655.747314417114	1063.897448745458	1482.409493198389	477.134460789873	1078.016491346745	930.621678850348	622.985207554057	1059.139390417842	948.486052557630	346.725614277283	1141.973419910025	748.584192683782	599.229042227149	1073.790717596717	632.471295053385	655.571093869689	1161.255372217615	591.056103004563	578.633775349904	1174.843304479604	501.856301928049	586.001894081959	1111.484489308654	742.080297891418	372.463398878479	1035.939544556376	624.116007575504	301.223442839911	1127.508837882815	542.820716395106	358.291834040827	1122.399114965461	454.611060579829	353.964950720326	1050.308087898685	397.745569938580	347.253406867622	907.698708980813	364.018513315382	296.803568656543	885.152400236299	238.372986200574	353.725816980321	1151.790578868063	410.905033601786	591.795907217471	1086.439106862940	301.861545111108	651.728058410920	1138.028756144633	210.746050929100	589.292928809558	1014.930881098171	42.950862886902	553.311172992378	1186.077690703282	99.357375055535	593.210341266617	1097.247983772104	36.677603861106	628.879741368961	1305.466459195237	46.651079495888	620.707185852442	688.569405928425	177.720847426018	388.143999957695	747.804388964489	139.562904519135	305.522397573196	852.410618411765	146.075212913483	329.130363821122	930.945879771849	41.288129631203	293.573725630228	1090.951374945003	1094.685719889123	175.788529235282	1337.594149038635	1077.417947321835	237.565195037803	953.370347363829	1101.351007784861	769.489470615369	919.063863986656	841.556112167765	760.101798651567	
38	30.628142857143	849.119876110495	1004.973341900483	510.435561963708	1052.456255853111	1425.802170156765	325.315156367587	1155.202998894928	1345.059285362724	482.185464824185	1083.535222739596	1425.234604559646	657.712223606831	1063.240956167710	1483.618759643369	479.426762277789	1077.053094678656	931.869319654666	624.474455530396	1056.484082041951	949.788800843613	348.666947731962	1138.469672877723	747.792495286705	601.883381246313	1068.780277338770	632.724743008818	657.479574629393	1155.771341715562	590.531281313498	580.375682858148	1168.310669680861	501.360196506225	587.544675220892	1113.742622576030	746.992227350466	374.275657655962	1042.790864194776	627.271811585976	302.054225172508	1137.293659976137	548.547520671622	358.747115042097	1134.266752446798	459.424276690376	353.809363757859	1061.286570539598	402.032663543272	347.344398840833	917.265111137095	371.217314535844	298.678485534496	893.277811292499	245.577267058443	354.987295235560	1144.811834552831	410.720501316406	593.223654831162	1078.840189139753	301.829359650836	652.758284061590	1130.279201274811	210.704591285496	590.176864125152	1006.845002198745	42.897442554265	553.574234935351	1177.814537072326	99.384226238196	593.701318162016	1089.141782737710	36.590534191881	629.098950057046	1297.323467849600	46.810994950250	621.006953434728	695.957700950261	188.878838214490	391.836401486868	753.083921973206	150.356828988061	307.792605904229	858.437256812023	153.707484473854	330.053840016992	933.635954939915	45.611133642031	291.642363568878	1080.124310097258	1092.992474540237	180.989184790130	1326.762183592283	1058.897247301830	238.173330032848	961.675764497972	1099.031240657015	772.837264333488	936.634045280359	838.152346634433	763.226354010919	
39	30.639714285714	847.489556299733	1006.717450997474	513.639146626521	1049.762310365509	1427.091755020864	327.351314830146	1154.208229407161	1346.050780379667	483.011993620845	1084.630352092959	1426.030536537546	659.521650286154	1062.391505405715	1484.765270631457	481.568083108867	1075.956742417807	933.029208805804	625.886888783265	1053.922455301139	951.084622605588	350.556024114471	1134.814703518537	747.008507230089	604.245481413917	1063.788307729538	632.969583997755	659.260348055757	1150.228857766559	590.005429154868	581.933178879155	1161.701090869836	500.870766736015	588.961319264813	1115.695439508620	752.069807700500	375.868222338671	1049.092583551625	630.904336827348	302.589944428181	1146.412610404478	554.818518897084	358.830842839360	1145.694867684269	464.967316274991	353.254884197120	1072.201295468667	406.799656700739	347.051518466015	927.053265637114	377.970588336887	300.180549194480	902.436240708160	252.199088328860	355.904833921647	1137.801090026858	410.534537028804	594.545825874168	1071.208549486299	301.807655511845	653.704742042313	1122.506131128154	210.656108449645	590.994311265970	998.719149717175	42.870330390134	553.810974814203	1169.581861913377	99.336185463186	594.152547186532	1081.002420957225	36.503633307688	629.289723546834	1289.166889094576	46.868374715368	621.246956018735	704.952561270027	197.819957685112	395.210389582753	760.280777695632	159.471777110588	309.801265464856	866.149439931520	160.761657140444	330.679181357036	939.015663805642	50.516957281475	289.533820404283	1069.172640778849	1091.416478437449	186.207392090210	1314.502136004011	1039.518818908375	238.398594069369	970.217520582646	1096.771873077692	776.077441632841	955.140189253381	835.066099841564	766.394441930030	
